PathFileType	4	(X/Y/Z)	6_2_42_p1_0-235_filt_butterworth.trc
DataRate	CameraRate	NumFrames	NumMarkers	Units	OrigDataRate	OrigDataStartFrame	OrigNumFrames
60.0	60.0	5	27	m	60.0	88	235
Frame#	Time	RHip			RKnee			RAnkle			RBigToe			RSmallToe			RHeel			LHip			LKnee			LAnkle			LBigToe			LSmallToe			LHeel			Neck			Head			Nose			RShoulder			RElbow			RWrist			RThumb			RIndex			RPinky			LShoulder			LElbow			LWrist			LThumb			LIndex			LPinky			
		X1	Y1	Z1	X2	Y2	Z2	X3	Y3	Z3	X4	Y4	Z4	X5	Y5	Z5	X6	Y6	Z6	X7	Y7	Z7	X8	Y8	Z8	X9	Y9	Z9	X10	Y10	Z10	X11	Y11	Z11	X12	Y12	Z12	X13	Y13	Z13	X14	Y14	Z14	X15	Y15	Z15	X16	Y16	Z16	X17	Y17	Z17	X18	Y18	Z18	X19	Y19	Z19	X20	Y20	Z20	X21	Y21	Z21	X22	Y22	Z22	X23	Y23	Z23	X24	Y24	Z24	X25	Y25	Z25	X26	Y26	Z26	X27	Y27	Z27	
88	1.4666666666666666	0.25319758727960934	0.8030970999415453	0.4903340639829426	0.28773785253229767	0.42493749656080626	0.4869078851468774	0.2796893423060414	0.033119370429844426	0.5887196209905697	0.27395628406905403	0.0564460417009552	0.3566577998709907	0.3305417856485578	0.028359604223493467	0.424140643235955	0.26181964656862383	-0.019645861167839306	0.6111945983235094	0.05139473335105582	0.7819038451784823	0.49888697964108447	0.05751230017849629	0.4107175947367474	0.4637568782085638	0.10609609633762576	0.036775000302555365	0.5424009630138078	0.10823087053301382	0.006281765606926112	0.39774996433269943	0.05824373917194211	0.04593642102150599	0.38227435010983285	0.11868019828952489	-0.02682029535750268	0.6103378209203686	0.10641173810125928	1.357160858231515	0.509698442679163	0.10613454375593614	1.6015999019738638	0.46882797703583	0.0966787810657282	1.4852907484204654	0.3761012784516903	0.25892466638685824	1.3177415326423252	0.4783802722068327	0.33404445545716677	1.0686061782171246	0.5038253818512434	0.3081879591272534	0.8560722945333136	0.40615422942476925	0.23627956042743997	0.7402787121296355	0.42761070426860565	0.2664886917021895	0.706427061084353	0.4625090758427691	0.31136324951467415	0.7295276842604602	0.43087236570102455	-0.02767779537728596	1.2952882826614045	0.5166612315585514	-0.06056677662601649	1.047504936297559	0.5035723852578706	-0.0033365342641854035	0.8499223204539889	0.4312310369647586	0.06458773400368752	0.7648734410929252	0.4569803997302526	0.045289922686813984	0.7128882000078558	0.45065639243929956	0.010361527126946934	0.7074521700366598	0.46210384606400867	
89	1.4833333333333334	0.25315692732226147	0.8031429483151974	0.49034303225882037	0.2874874271597369	0.4242895167477942	0.4877749416704417	0.2801803288768331	0.032547141146814694	0.5890397626481144	0.2739354644472095	0.056519753371623606	0.3566779493823692	0.33023041729855573	0.028983461246610037	0.4230959163252416	0.2618439485702885	-0.019508173874069525	0.6108482054976447	0.05138411472654933	0.7819059760995919	0.4988557924195524	0.057513354746010215	0.4107194008718411	0.4637443550273142	0.10587860751211559	0.03796335892425949	0.5411428865233153	0.10825774157409779	0.005704560722556623	0.3977116369221813	0.05785150262651119	0.047092528105428036	0.38122131399738535	0.118745873914128	-0.026193464429187595	0.6103493841289388	0.10712759241763795	1.357135668583901	0.5100997198263579	0.10607769309700957	1.6009398257829752	0.46937758465578905	0.0969408566705324	1.4852152446249949	0.3773354961280341	0.2589196940159591	1.3185860358066537	0.4784721031269994	0.3340473714120441	1.0686264880540766	0.5038180804463144	0.3081891632458999	0.8560611854023044	0.4061327777887125	0.23585570127779884	0.7403397061849476	0.4262170429549133	0.266915874453607	0.7062851633007101	0.46277175663244025	0.31136144793190035	0.7295503363986636	0.4308684119780485	-0.027484390975285586	1.2954057613887417	0.5161915211243149	-0.06059616274329577	1.0475231396245837	0.5032786429153046	-0.0032328583504592054	0.8496929641412977	0.4315925329623086	0.06479802527457433	0.763622631789642	0.45735225166753923	0.04539094523021951	0.7128115373346823	0.4508190083658728	0.009915346410161025	0.7078121439269922	0.45995265092094595	
90	1.5	0.25303511404678364	0.8032541750466515	0.49029853230231335	0.2872658493168572	0.4236930332704752	0.48854033001394576	0.2805017994295079	0.03222544904791791	0.5892699613119805	0.27391224656692387	0.056596180658050194	0.3567332659567462	0.33016239346275034	0.029115163671883538	0.4228652591681059	0.2618801374337034	-0.019470024157239745	0.610576471889787	0.05137480105948948	0.7819124810695469	0.4988402794284806	0.05751329540702976	0.41072240603537014	0.463729222331966	0.1056691215628463	0.03914987815347927	0.5399012674975093	0.10812416589671084	0.004451235760630813	0.3980175960462752	0.05761901175958176	0.047727923250351426	0.3810064787877966	0.11880800274181784	-0.025585381855130946	0.6103769194502383	0.10809238392322557	1.3571056903643315	0.510638965608406	0.10609060294246095	1.6001577529644007	0.4697765492249031	0.09742397309381445	1.4849767841547288	0.37945424224088053	0.2589168869083343	1.3193560906109776	0.4785537499111648	0.33405136435002314	1.0686464584439122	0.5038052132690263	0.3081863184712002	0.8560449129480298	0.406109534776185	0.23516962931269308	0.740305884886593	0.42420212029962795	0.26755359918697164	0.7066700396707144	0.4618520102822037	0.3113526684710811	0.7295673314602911	0.43087541496554477	-0.027963456385734838	1.2951140726216068	0.5173160088646472	-0.06047241428147741	1.0473717538395784	0.5035374985727072	-0.0031282322785615964	0.8493411370282502	0.4319011114535792	0.0650175128178545	0.7623393169497309	0.4577517114871058	0.04546007962520058	0.7124670865126815	0.45085860260845634	0.00958790163633923	0.7078782607725416	0.4590084435468725	
91	1.5166666666666666	0.2528950620787194	0.8033715296253922	0.4902373815726002	0.2870781172810591	0.42311635226874633	0.48917466355255107	0.2806280603755161	0.03210284108254291	0.5893679221685219	0.2738971538569162	0.056615942972518166	0.35677866809800873	0.33023981644465317	0.028946378665899233	0.4231328715950332	0.261928317962515	-0.01953517541383036	0.6103578138367649	0.05136785594117257	0.7819217075731221	0.4988441493250824	0.05751252453104212	0.41072547996750675	0.46371422971606746	0.10546234219344879	0.040244179725448206	0.5387000531092244	0.10773870912206109	0.002989278121875605	0.3986993976443364	0.057553390654392425	0.0478522582651449	0.3812957580510066	0.11886386190431793	-0.025063882811748085	0.6103902384404688	0.10902105044906385	1.3570775549192886	0.5111596201188465	0.10615837112630336	1.5993485732026484	0.4699915576806345	0.0979843564018898	1.4846595061394163	0.3818619106496705	0.25891639822223256	1.3198215193207146	0.4786047287905061	0.3340551658646619	1.0686604422025057	0.5037914701958002	0.30818258465264264	0.8560288878263029	0.4060880538447383	0.23437798854336617	0.7402627779525106	0.42182663195906983	0.26833175142584154	0.7075891863062183	0.4599291878547733	0.3113431027395023	0.7295729806726258	0.43089119719536106	-0.02881030488223972	1.2946004177533514	0.5193165579907463	-0.06035376322933668	1.0472719834707294	0.5038187562808745	-0.003144444653788002	0.8491239193843623	0.43168388169025707	0.06517930122973749	0.7613555466646347	0.4580808830993347	0.045517254574816216	0.7119443050974621	0.4507607539857132	0.009470236476157568	0.707750233842903	0.4590645625322274	
92	1.5333333333333334	0.2528027135556366	0.8034444207652952	0.49019495048630285	0.28693172122161015	0.42261464377963465	0.48963875666613277	0.2805600029248613	0.03214126121136422	0.5893329104850122	0.2738894223875795	0.0565942887828943	0.3568118230516243	0.3303215655615405	0.028762369590422013	0.4234246850363667	0.2619541868495847	-0.019612199161239487	0.6101732323658997	0.051364395377072	0.7819306267198913	0.49886683879511506	0.05751060957229355	0.4107281015964393	0.4636988197871462	0.10525378006602401	0.041160726841474066	0.5375627187649022	0.10713751929388377	0.0021324306205263432	0.39936301490862547	0.057595226253584424	0.04768136104026369	0.38164008958902285	0.11891164212644836	-0.024664525360523305	0.6103843298124635	0.10971329468195642	1.357059598583527	0.511551422680258	0.10626168485882923	1.598586613866089	0.47009971354331537	0.09845393981170324	1.4843844185157091	0.3838628858921999	0.2589184876069002	1.3198151998214394	0.4786142251658235	0.33405624352642826	1.0686630304235583	0.5037842205480686	0.30817867780783714	0.8560375930550568	0.4060730001158404	0.2335843041338242	0.7403855269102936	0.41934659051355366	0.26911778051580987	0.7089008661330357	0.45746486458331337	0.31133660367091176	0.7295703954584146	0.43090962116852294	-0.029576073306232457	1.294138931708842	0.5211233131680049	-0.0604036573562297	1.0473174601697925	0.5037452775555331	-0.003371129983643163	0.849329504529548	0.43059646409903474	0.06522611688960189	0.7609468465763674	0.45824466265662195	0.045542527706125074	0.7115610804875011	0.4505478705928321	0.009600341252972315	0.707916382077249	0.45888146437861843	
